<?xml version="1.0" encoding="UTF-8"?>
<svg version="1.1" viewBox="0 0 900 900" width="1280" height="1280" xmlns="http://www.w3.org/2000/svg">
<path transform="translate(0)" d="m0 0h900v900h-900z" fill="none"/>
<path transform="translate(679,260)" d="m0 0h12l11 3 10 5 14 12 139 139 7 8 6 9 3 8 1 5v16l-4 13-6 9-158 158-14 7-9 2h-12l-12-3-10-6-10-9-148-148-7-11-4-15v-10l4-15 7-11 155-155 11-7 9-3z" fill="#F8F9F9"/>
<path transform="translate(443,21)" d="m0 0h18l13 4 10 7 12 11 5 5v2l4 2v2h2l7 8 19 19 2 1v2h2v2l4 2v2l4 2v2l4 2v2l4 2v2l4 2v2l4 2v2l4 2v2l4 2v2l4 2v2l4 2v2l4 2 52 52 9 11 6 12 2 10v8l-4 16-6 10-158 158-11 6-10 3h-16l-11-3-10-6-12-11-145-145-7-11-4-12v-16l4-13 6-10 156-156 11-7z" fill="#F8F9F9"/>
<path transform="translate(210,256)" d="m0 0h17l13 4 9 6 10 9 146 146 7 11 4 11v19l-6 16-11 12-149 149-10 6-11 4h-18l-10-3-8-4-10-9-8-7-7-8-136-136-8-16-1-4v-19l4-12 7-10 155-155 11-7z" fill="#F7F9F9"/>
<path transform="translate(450,505)" d="m0 0 11 1 10 5 10 9 144 144 6 9 3 8v11l-4 11-8 10-43 43h-2l-2 4h-2l-2 4h-2l-2 4h-2l-2 4h-2l-2 4h-2l-2 4h-2l-2 4h-2l-2 4h-2l-2 4h-2l-2 4h-2l-2 4h-2l-2 4h-2l-2 4h-2l-2 4h-2l-2 4h-2l-2 4h-2l-2 4h-2l-2 4h-2l-2 4-28 28-9 6-7 2h-13l-10-4-9-7-147-147-6-8-3-10v-11l3-8 6-9 151-151 10-6z" fill="#F8F9F9"/>
<path transform="translate(414,610)" d="m0 0h9l11 4 14 9v2l4 2h4l5-5 11-8 11-4h12l6 5 4 8 2 7v11l-2 11v5l5 3 7 3 12 6 6 5 5 8v10l-6 8-10 8-8 4-11 4v7l2 8v14l-3 10-6 7-4 2h-12l-16-8-8-7-5-2-11 8-14 8-2 1h-12l-6-3-4-5-3-9-1-5v-11l3-11v-3l-19-8-10-8-6-7-1-2v-9l6-9 9-8 8-4 13-5-1-7-2-9v-12l5-13 6-5z" fill="#02D8FB"/>
<path transform="translate(679,260)" d="m0 0h12l11 3 10 5 14 12 139 139 7 8 6 9 3 8 1 5v16l-4 13-6 9-158 158-14 7-9 2h-12l-12-3-10-6-10-9-148-148-7-11-4-15v-10l4-15 7-11 155-155 11-7 9-3zm-2 16-12 6-155 155-5 10-1 4v13l4 10 9 10 148 148 9 5 7 2h8l11-4 8-6 152-152 5-9 1-4v-15l-5-10-9-10-145-145-9-6-7-2z" fill="#00059E"/>
<path transform="translate(443,21)" d="m0 0h18l13 4 10 7 12 11 5 5v2l4 2v2h2l7 8 19 19 2 1v2h2v2l4 2v2l4 2v2l4 2v2l4 2v2l4 2v2l4 2v2l4 2v2l4 2v2l4 2v2l4 2v2l4 2 52 52 9 11 6 12 2 10v8l-4 16-6 10-158 158-11 6-10 3h-16l-11-3-10-6-12-11-145-145-7-11-4-12v-16l4-13 6-10 156-156 11-7zm4 15-9 3-8 6-152 152-6 12-1 10 3 12 6 9 151 151 9 6 7 2h12l10-4 10-8 3-3v-2l3-1 5-6 6-5 6-7 6-5 6-7 6-5 6-7 6-5 6-7 6-5 6-7 6-5 6-7 6-5 6-7 6-5 6-7 6-5 6-7 6-5 6-7 8-7v-2l4-2v-2l3-1 6-9 3-8v-13l-4-10-7-8-152-152-9-4-5-1z" fill="#00059E"/>
<path transform="translate(446,490)" d="m0 0h12l12 3 10 5 10 9 132 132 6 5 14 16 6 12 2 10-1 14-4 13-8 11-154 154-16 8-8 2h-11l-12-3-10-5-10-9-151-151-7-14-2-8v-15l4-13 6-9 9-10 143-143 11-8 11-5zm4 15-11 3-9 6-151 151-6 9-2 7v11l3 10 9 11 147 147 10 6 6 2h13l9-3 10-8 27-27v-2l4-2v-2l4-2v-2l4-2v-2l4-2v-2l4-2v-2l4-2v-2l4-2v-2l4-2v-2l4-2v-2l4-2v-2l4-2v-2l4-2v-2l4-2v-2l4-2v-2l4-2v-2l4-2v-2l4-2v-2l4-2v-2l4-2 44-44 7-11 2-7v-11l-4-10-8-10-148-148-8-5-10-3z" fill="#00059E"/>
<path transform="translate(210,256)" d="m0 0h17l13 4 9 6 10 9 146 146 7 11 4 11v19l-6 16-11 12-149 149-10 6-11 4h-18l-10-3-8-4-10-9-8-7-7-8-136-136-8-16-1-4v-19l4-12 7-10 155-155 11-7zm5 15-10 3-11 8-147 147-7 10-2 6v15l4 10 15 16 138 138 11 8 7 2h13l10-4 10-9 150-150 4-9 1-12-3-12-7-9-152-152-8-4-8-2z" fill="#00059E"/>
<path transform="translate(682,392)" d="m0 0 15 1 13 4 13 7 10 9 7 8 5 9 5 12 2 8v19l-4 16-8 14-11 12-8 6-14 7-16 4h-13l-17-4-15-8-11-9-9-12-6-12-3-13v-19l4-16 8-15 9-10 11-8 12-6 11-3z" fill="#353738"/>
<path transform="translate(449,111)" d="m0 0 4 1 9 10 13 18 9 15 8 17 4 13 2 14v18l-3 18-4 12-7 14-8 10-11 11-7 5h-2l-1 5-7-6-10-9-9-9-9-14-5-11-4-13-3-16v-24l3-15 5-16 5-12 9-15 13-16z" fill="#367C3D"/>
<path transform="translate(449,111)" d="m0 0h3l1 140 1 36h2l-1 5-7-6-10-9-9-9-9-14-5-11-4-13-3-16v-24l3-15 5-16 5-12 9-15 13-16z" fill="#66C762"/>
<path transform="translate(210,365)" d="m0 0 6 1 16 9 27 15 24 14 4 5v80l-5 6-23 13-43 24h-8l-18-10-5-3 1-4 5-2 6 1 9 5 3 2 7-1 25-14 17-10 14-7 4-3v-74l-9-6-27-15-24-13-1-1h-6l-21 12-27 15-12 7-1 1-1 53v18l2 4 16 9 3 1h8l4-4 1-73 3-2h6l2 3v61l-1 13-3 7-6 5-2 1h-11l-12-5-15-8-4-5-1-3v-79l5-5 24-14 29-16z" fill="#63C763"/>
<path transform="translate(458,8)" d="m0 0h11l10 3 9 7 9 8v2l3 1 5 6 7 6v2l4 2 136 136 9 12 3 6 1 4v11l-5 12-5 6-5 5-4 2-2 4-1-2 4-10 2-10v-8l-3-12-5-10-12-14-50-50-6-5-6-7-6-5-6-7-6-5-6-7-6-5v-2h-2v-2l-4-2-24-24v-2h-2l-7-8-10-10-12-9-10-4-5-1h-18l-7 1 3-5 8-6 6-3z" fill="#DBDDDD"/>
<path transform="translate(223,244)" d="m0 0h13l10 4 8 5 10 9 14 15 6 5 5 6 122 122 7 8 6 7 4 8 2 7v11l-4 10-7 9-3 3h-2v2h-2l-1 3-1-2 5-14v-19l-5-13-8-11-150-150-10-7-10-4-5-1-17-1-3-1 1-5 8-4z" fill="#DADCDC"/>
<path transform="translate(454,481)" d="m0 0h17l10 4 6 5 7 8 13 13 7 8 110 110 2 1v2l4 2 19 19 5 4 7 12 2 6v12l-4 10-5 7-6 4h-2l-1 3-1-2 4-13 1-14-3-12-5-10-9-10v-2l-4-2v-2l-4-2v-2l-4-2-137-137-10-6-9-3-6-1h-12l-9 1 4-2v-3z" fill="#DADCDC"/>
<path transform="translate(688,249)" d="m0 0h8l10 2 11 7 13 13 7 8 127 127 8 7 11 11 9 12 3 9v7l-4 13-6 8-5 2-1-2 2-8v-16l-3-11-6-10-7-7-7-8-136-136-10-8-12-6-9-2h-12l-12 2 2-2 3-2 5-5z" fill="#DADCDC"/>
<path transform="translate(441,659)" d="m0 0h19l10 1 4 5 8 14 3 5-1 8-7 11-5 9-3 3-30 1-4-4-12-21-2-6 8-13 6-9 3-3z" fill="#F4F5F5"/>
<path transform="translate(216,369)" d="m0 0 4 1 1 2 9 2 22 12 24 14 9 6 2 3v80l-5 6-23 13-43 24h-8l-18-10-5-3 1-4 5-2 6 1 9 5 3 2 7-1 25-14 17-10 14-7 4-3v-74l-9-6-21-12-3-3-10-6-8-4v-2l-6-2-7-4 2-1v-2z" fill="#62C763"/>
<path transform="translate(225,416)" d="m0 0h9l10 2 6 3 7 7 3 7-1 4h-8l-4-5-5-5-9-2h-9l-9 3-3 4 1 5 16 4 17 3 10 4 5 6 1 3v10l-4 6-6 5-8 3-5 1h-12l-16-4-6-4-4-5-2-5v-6l5-1 5 3 3 7 5 3 6 1h13l10-2 4-4v-7l-8-3-26-5-10-4-5-6v-11l4-7 5-4 7-3z" fill="#62C763"/>
<path transform="translate(657,433)" d="m0 0 10 1 6 4 6 8 3 12-2 4-2 1h-34l2 8 4 5 2 1h13l8-7 5-2 2 5-3 6-6 5-8 3h-8l-9-3-6-5-5-11-1-10 2-10 4-7 9-6z" fill="#F2F4F4"/>
<path transform="translate(184,418)" d="m0 0h6l2 3v61l-1 13-3 7-6 5-2 1h-11l-12-5-15-8-4-5-1-7 2-10 4-1 2 10 7 7 16 8h8l4-4 1-73z" fill="#5FC864"/>
<path transform="translate(402,665)" d="m0 0 4 1 5 12 3 9-4 10-5 11h-6l-10-4-11-8-4-5-1-6 6-8 11-7z" fill="#F5F6F6"/>
<path transform="translate(488,616)" d="m0 0 6 2 4 5 2 9v11l-2 9-3 4-21-3-11-13-3-3v-6l14-10 10-4z" fill="#F5F6F6"/>
<path transform="translate(490,719)" d="m0 0h7l2 5 1 9v11l-2 7-7 6h-9l-11-6-10-7-2-4 2-4 5-5 8-10 2-1z" fill="#F5F6F6"/>
<path transform="translate(416,616)" d="m0 0 10 2 12 7 10 7-1 5-10 11-5 5-16 3h-5l-2-3-2-12v-8l2-10 3-5z" fill="#F5F7F7"/>
<path transform="translate(411,718)" d="m0 0 21 3 5 3 8 11 3 3-1 5-15 10-7 4h-10l-5-5-2-4v-22l2-7z" fill="#F6F7F7"/>
<path transform="translate(502,665)" d="m0 0 5 1 15 7 8 7 3 4v6l-7 8-11 7-11 4-4-5-4-10-3-8 8-20z" fill="#F6F7F7"/>
<path transform="translate(685,433)" d="m0 0h9l6 5 7 10v2h3l2-5 8-10 3-2h8l-1 4-14 19-1 3 9 12 9 13-1 3-9-1-6-7-4-6-3-5-4 1-10 15-3 3h-6l-2-1 1-4 7-11 7-10v-5l-10-14-5-8z" fill="#F3F4F4"/>
<path transform="translate(713,266)" d="m0 0 5 2 3 1 35 35 6 5 6 7 6 5 6 7 6 5 6 7 6 5 6 7 6 5 6 7 6 5 7 8 40 40 1 4h2l8 11 3 9-2 2-7-12-9-10-7-8-136-136-9-7z" fill="#F3F5F5"/>
<path transform="translate(276,486)" d="m0 0 3 1-3 3-2-1 1 4-2 4v3l-21 12-36 20h-8l-18-10-5-3 1-4 5-2 6 1 9 5 3 2 7-1 25-14 17-10 14-7z" fill="#62C763"/>
<path transform="translate(485,500)" d="m0 0h2v2h3v2l5 2 17 17v2l3 1 5 6 6 5 6 7 6 5 6 7 7 6 5 6 6 5 6 7 7 6 5 6 7 6 5 6 7 6 5 6 6 5 6 7 6 5 6 7 3 3v2l3 1 5 6-1 2-5-5-5-3v-2l-4-2v-2l-4-2-134-134z" fill="#F3F4F4"/>
<path transform="translate(450,671)" d="m0 0h7l5 3 6 7 1 2v9l-4 6-3 3-3 1h-9l-7-3-3-4-1-3v-10l3-6 5-4z" fill="#01D8FE"/>
<path transform="translate(216,369)" d="m0 0 4 1 1 2 9 2 22 12 24 14 2 4 2 1-1 5-8-3-13-8-12-6-13-8-8-4v-2l-6-2-7-4 2-1v-2z" fill="#3FCE71"/>
<path transform="translate(140,472)" d="m0 0h3l2 10 7 7 7 4 2 3 8 4 4 1v2l7-2v-2h2v-2h2v-2l4 2-2 5-3 1-4 4h-8l-2 1-12-5-15-8-4-5-1-7 2-10z" fill="#3DCF72"/>
<path transform="translate(472,513)" d="m0 0 4 2 149 149-1 2-129-129-6-5v-2l-4-2v-2l-4-2-7-8z" fill="#DADCDC"/>
<path transform="translate(657,441)" d="m0 0 9 2 5 6 1 6-26 1-2-1 1-7 5-5z" fill="#353C3A"/>
<path transform="translate(191,513)" d="m0 0h4l1 5 4 3 7 3 4 4 6 1-2 2-7 1-18-10-5-3 1-4z" fill="#53CA69"/>
<path transform="translate(452,640)" d="m0 0 4 1 7 8v4h-18v-5z" fill="#F0F1F1"/>
<path transform="translate(480,660)" d="m0 0h7l7 3-1 8-3 7-3-1-7-13z" fill="#EFF0F0"/>
<path transform="translate(446,721)" d="m0 0 18 1-2 4-7 8-4-1-6-7z" fill="#EFF0F0"/>
<path transform="translate(423,660)" d="m0 0 5 1-2 5-5 9-2 3-3-1-3-8v-6z" fill="#EFF0F0"/>
<path transform="translate(417,697)" d="m0 0 4 2 6 10 1 5-9-1-6-2v-6z" fill="#EDEEEE"/>
<path transform="translate(202,459)" d="m0 0h2v2l3 1 4 8 2 5 2 2-4 1-5-2-5-5-2-5v-6z" fill="#3DCF72"/>
<path transform="translate(487,698)" d="m0 0h4l4 7v5l-4 2-10 1v-5z" fill="#F0F1F1"/>
<path transform="translate(286,477)" d="m0 0h1v12l-5 6-7 4h-3v-4h2v-6l4-1 2-4 5-2z" fill="#40CE71"/>
<path transform="translate(484,29)" d="m0 0 6 2v2h2v2h2v2h2v2h2v2h2v2h2v2h2v3l3 1 7 8v3l-6-5-3-1-7-8-10-10-4-5z" fill="#F3F5F5"/>
<path transform="translate(188,456)" d="m0 0 3 2 1 13v11l-1 9-1-2h-4l1-25z" fill="#3DCF72"/>
<path transform="translate(246,425)" d="m0 0 7 1 1 5h2l3 4 1 3-1 1h-8l-3-3-1-5z" fill="#3ECF72"/>
<path transform="translate(460,284)" d="m0 0 2 1-5 5-1 17h-4v-18l2 2 2-4z" fill="#DBDDDD"/>
<path transform="translate(191,513)" d="m0 0h4l1 5 4 3 7 3 1 5-8-4-7-4-1-5-4-1z" fill="#3AD074"/>
<path transform="translate(507,54)" d="m0 0 5 3v2l4 2v2l4 2v2l4 2v2l4 2v2l4 2v2l4 2-1 2-8-7-20-20z" fill="#DADCDC"/>
<path transform="translate(186,515)" d="m0 0 6 1 3 6-1 2-9-5z" fill="#5EC865"/>
<path transform="translate(141,492)" d="m0 0 5 2 12 7 1 2-6-2-12-7z" fill="#5FC864"/>
</svg>
